<svg xmlns="http://www.w3.org/2000/svg" width="1280" height="720" viewBox="0 0 1280 720">
  <rect width="1280" height="720" fill="#eef3f7"/>
  <rect width="250" height="720" fill="#123244"/>
  <text x="28" y="58" fill="#fff" font-family="Segoe UI, Arial" font-size="26" font-weight="900">MediCore</text>
  <rect x="22" y="116" width="206" height="44" rx="8" fill="#1c455b"/>
  <text x="48" y="144" fill="#d8e8ed" font-family="Segoe UI, Arial" font-size="16" font-weight="800">Overview</text>
  <text x="48" y="202" fill="#d8e8ed" font-family="Segoe UI, Arial" font-size="16" font-weight="800">Book / Schedule</text>
  <rect x="22" y="640" width="206" height="44" rx="8" fill="#36576a"/>
  <text x="92" y="668" fill="#dfeef2" font-family="Segoe UI, Arial" font-size="15" font-weight="800">Sign out</text>
  <text x="290" y="60" fill="#50818a" font-family="Segoe UI, Arial" font-size="15" font-weight="900">PATIENT PORTAL / DOCTOR DESK</text>
  <text x="290" y="104" fill="#122838" font-family="Segoe UI, Arial" font-size="38" font-weight="900">Role-based hospital dashboard</text>
  <rect x="1060" y="54" width="118" height="42" rx="8" fill="#fff" stroke="#d0dce5"/>
  <text x="1090" y="81" fill="#143344" font-family="Segoe UI, Arial" font-size="15" font-weight="800">Refresh</text>
  <rect x="290" y="140" width="270" height="112" rx="8" fill="#fff" stroke="#dbe5ec"/>
  <text x="318" y="196" fill="#11707d" font-family="Segoe UI, Arial" font-size="40" font-weight="900">3</text>
  <text x="318" y="226" fill="#657684" font-family="Segoe UI, Arial" font-size="16" font-weight="800">Doctors</text>
  <rect x="588" y="140" width="270" height="112" rx="8" fill="#fff" stroke="#dbe5ec"/>
  <text x="616" y="196" fill="#11707d" font-family="Segoe UI, Arial" font-size="40" font-weight="900">8</text>
  <text x="616" y="226" fill="#657684" font-family="Segoe UI, Arial" font-size="16" font-weight="800">Appointments</text>
  <rect x="886" y="140" width="270" height="112" rx="8" fill="#fff" stroke="#dbe5ec"/>
  <text x="914" y="196" fill="#11707d" font-family="Segoe UI, Arial" font-size="40" font-weight="900">5</text>
  <text x="914" y="226" fill="#657684" font-family="Segoe UI, Arial" font-size="16" font-weight="800">Prescriptions</text>
  <rect x="290" y="284" width="424" height="324" rx="8" fill="#fff" stroke="#dbe5ec"/>
  <text x="318" y="332" fill="#122838" font-family="Segoe UI, Arial" font-size="26" font-weight="900">Book appointment</text>
  <text x="318" y="378" fill="#4e5f6e" font-family="Segoe UI, Arial" font-size="15" font-weight="800">Doctor</text>
  <rect x="318" y="392" width="348" height="48" rx="8" fill="#fff" stroke="#cedbe4"/>
  <text x="338" y="422" fill="#17202a" font-family="Segoe UI, Arial" font-size="15" font-weight="700">Dr. Asha Mehta</text>
  <text x="318" y="474" fill="#4e5f6e" font-family="Segoe UI, Arial" font-size="15" font-weight="800">Date and Slot</text>
  <rect x="318" y="488" width="160" height="48" rx="8" fill="#fff" stroke="#cedbe4"/>
  <rect x="506" y="488" width="160" height="48" rx="8" fill="#fff" stroke="#cedbe4"/>
  <rect x="318" y="554" width="348" height="48" rx="8" fill="#11707d"/>
  <text x="445" y="584" fill="#fff" font-family="Segoe UI, Arial" font-size="16" font-weight="900">Book now</text>
  <rect x="744" y="284" width="424" height="324" rx="8" fill="#fff" stroke="#dbe5ec"/>
  <text x="772" y="332" fill="#122838" font-family="Segoe UI, Arial" font-size="26" font-weight="900">Doctor schedule</text>
  <rect x="772" y="378" width="348" height="58" rx="8" fill="#fbfcfd" stroke="#e2eaf0"/>
  <text x="794" y="413" fill="#17202a" font-family="Segoe UI, Arial" font-size="15" font-weight="800">Monday</text>
  <text x="920" y="413" fill="#697b88" font-family="Segoe UI, Arial" font-size="15">09:00 AM, 10:00 AM</text>
  <rect x="772" y="454" width="348" height="58" rx="8" fill="#fbfcfd" stroke="#e2eaf0"/>
  <text x="794" y="489" fill="#17202a" font-family="Segoe UI, Arial" font-size="15" font-weight="800">Tuesday</text>
  <text x="920" y="489" fill="#697b88" font-family="Segoe UI, Arial" font-size="15">02:00 PM, 04:00 PM</text>
</svg>
